<mxfile host="Electron" agent="Mozilla/5.0 (Windows NT 10.0; Win64; x64) AppleWebKit/537.36 (KHTML, like Gecko) draw.io/28.2.7 Chrome/138.0.7204.251 Electron/37.7.1 Safari/537.36" version="28.2.7">
  <diagram name="Page-1" id="QgO3yLN_8jlp8kIX_1ZP">
    <mxGraphModel dx="1181" dy="687" grid="1" gridSize="10" guides="1" tooltips="1" connect="1" arrows="1" fold="1" page="1" pageScale="1" pageWidth="850" pageHeight="1100" math="0" shadow="0">
      <root>
        <mxCell id="0" />
        <mxCell id="1" parent="0" />
        <mxCell id="XWF4hy6HSdqNymS0PtoF-1" value="&lt;b&gt;&lt;font style=&quot;font-size: 20px;&quot;&gt;High Level Architecture&lt;/font&gt;&lt;/b&gt;" style="rounded=0;whiteSpace=wrap;html=1;fillColor=none;strokeColor=none;align=left;" parent="1" vertex="1">
          <mxGeometry x="10" width="440" height="90" as="geometry" />
        </mxCell>
        <mxCell id="XWF4hy6HSdqNymS0PtoF-2" value="" style="rounded=0;whiteSpace=wrap;html=1;dashed=1;fillColor=none;strokeColor=#D4E1F5;" parent="1" vertex="1">
          <mxGeometry x="40" y="90" width="120" height="460" as="geometry" />
        </mxCell>
        <mxCell id="XWF4hy6HSdqNymS0PtoF-3" value="Sources" style="rounded=1;whiteSpace=wrap;html=1;fillColor=#FFFFFF;fontColor=#000000;fontStyle=1" parent="1" vertex="1">
          <mxGeometry x="47.5" y="70" width="105" height="30" as="geometry" />
        </mxCell>
        <mxCell id="XWF4hy6HSdqNymS0PtoF-4" value="" style="rounded=0;whiteSpace=wrap;html=1;dashed=1;fillColor=none;strokeColor=#D4E1F5;" parent="1" vertex="1">
          <mxGeometry x="200" y="90" width="540" height="460" as="geometry" />
        </mxCell>
        <mxCell id="XWF4hy6HSdqNymS0PtoF-5" value="&lt;font style=&quot;color: rgb(0, 0, 0);&quot;&gt;Data Warehouse&lt;/font&gt;" style="rounded=1;whiteSpace=wrap;html=1;fillColor=#FFFFFF;fontColor=#000000;fontStyle=1" parent="1" vertex="1">
          <mxGeometry x="340" y="70" width="270" height="30" as="geometry" />
        </mxCell>
        <mxCell id="XWF4hy6HSdqNymS0PtoF-6" value="" style="rounded=0;whiteSpace=wrap;html=1;dashed=1;fillColor=none;strokeColor=#D4E1F5;" parent="1" vertex="1">
          <mxGeometry x="778" y="90" width="120" height="460" as="geometry" />
        </mxCell>
        <mxCell id="XWF4hy6HSdqNymS0PtoF-7" value="&lt;font style=&quot;color: rgb(0, 0, 0);&quot;&gt;Consume&lt;/font&gt;" style="rounded=1;whiteSpace=wrap;html=1;fillColor=#FFFFFF;fontColor=#000000;fontStyle=1" parent="1" vertex="1">
          <mxGeometry x="785.5" y="70" width="105" height="30" as="geometry" />
        </mxCell>
        <mxCell id="XWF4hy6HSdqNymS0PtoF-8" value="&lt;font style=&quot;color: rgb(0, 0, 0);&quot;&gt;Bronze Layer&lt;/font&gt;" style="rounded=0;whiteSpace=wrap;html=1;fillColor=#E27343;fontColor=#ffffff;strokeColor=#FFFFFF;fontStyle=1" parent="1" vertex="1">
          <mxGeometry x="235" y="130" width="120" height="30" as="geometry" />
        </mxCell>
        <mxCell id="XWF4hy6HSdqNymS0PtoF-9" value="" style="rounded=0;whiteSpace=wrap;html=1;fillColor=none;" parent="1" vertex="1">
          <mxGeometry x="220" y="170" width="150" height="370" as="geometry" />
        </mxCell>
        <mxCell id="XWF4hy6HSdqNymS0PtoF-12" value="&lt;font style=&quot;color: rgb(0, 0, 0);&quot;&gt;Silver Layer&lt;/font&gt;" style="rounded=0;whiteSpace=wrap;html=1;fillColor=#D4E1F5;fontColor=#ffffff;strokeColor=#FFFFFF;fontStyle=1" parent="1" vertex="1">
          <mxGeometry x="410" y="130" width="120" height="30" as="geometry" />
        </mxCell>
        <mxCell id="XWF4hy6HSdqNymS0PtoF-13" value="" style="rounded=0;whiteSpace=wrap;html=1;fillColor=none;" parent="1" vertex="1">
          <mxGeometry x="397.5" y="170" width="145" height="370" as="geometry" />
        </mxCell>
        <mxCell id="XWF4hy6HSdqNymS0PtoF-14" value="&lt;font style=&quot;color: rgb(0, 0, 0);&quot;&gt;Bronze Layer&lt;/font&gt;" style="rounded=0;whiteSpace=wrap;html=1;fillColor=#FFD966;fontColor=#ffffff;strokeColor=#FFFFFF;fontStyle=1" parent="1" vertex="1">
          <mxGeometry x="585" y="130" width="120" height="30" as="geometry" />
        </mxCell>
        <mxCell id="XWF4hy6HSdqNymS0PtoF-15" value="" style="rounded=0;whiteSpace=wrap;html=1;fillColor=none;" parent="1" vertex="1">
          <mxGeometry x="570" y="170" width="150" height="370" as="geometry" />
        </mxCell>
        <mxCell id="XWF4hy6HSdqNymS0PtoF-17" value="" style="image;html=1;image=img/lib/clip_art/general/Full_Folder_128x128.png" parent="1" vertex="1">
          <mxGeometry x="70" y="110" width="47" height="40" as="geometry" />
        </mxCell>
        <mxCell id="XWF4hy6HSdqNymS0PtoF-18" value="amazon-purchases.csv" style="text;strokeColor=none;align=center;fillColor=none;html=1;verticalAlign=middle;whiteSpace=wrap;rounded=0;fontSize=9;" parent="1" vertex="1">
          <mxGeometry x="50" y="150" width="100" height="30" as="geometry" />
        </mxCell>
        <mxCell id="XWF4hy6HSdqNymS0PtoF-25" value="fields.csv" style="text;strokeColor=none;align=center;fillColor=none;html=1;verticalAlign=middle;whiteSpace=wrap;rounded=0;fontSize=9;" parent="1" vertex="1">
          <mxGeometry x="50" y="225" width="100" height="30" as="geometry" />
        </mxCell>
        <mxCell id="XWF4hy6HSdqNymS0PtoF-28" value="survey.csv" style="text;strokeColor=none;align=center;fillColor=none;html=1;verticalAlign=middle;whiteSpace=wrap;rounded=0;fontSize=9;" parent="1" vertex="1">
          <mxGeometry x="52.5" y="305" width="100" height="30" as="geometry" />
        </mxCell>
        <mxCell id="XWF4hy6HSdqNymS0PtoF-34" value="" style="html=1;verticalLabelPosition=bottom;align=center;labelBackgroundColor=#ffffff;verticalAlign=top;strokeWidth=2;strokeColor=#b85450;shadow=0;dashed=0;shape=mxgraph.ios7.icons.data;fillColor=#f8cecc;" parent="1" vertex="1">
          <mxGeometry x="268" y="254.9" width="54" height="50.1" as="geometry" />
        </mxCell>
        <mxCell id="XWF4hy6HSdqNymS0PtoF-35" value="" style="html=1;verticalLabelPosition=bottom;align=center;labelBackgroundColor=#ffffff;verticalAlign=top;strokeWidth=2;strokeColor=#666666;shadow=0;dashed=0;shape=mxgraph.ios7.icons.data;fillColor=#f5f5f5;fontColor=#333333;" parent="1" vertex="1">
          <mxGeometry x="443" y="254.9" width="54" height="50.1" as="geometry" />
        </mxCell>
        <mxCell id="XWF4hy6HSdqNymS0PtoF-36" value="" style="html=1;verticalLabelPosition=bottom;align=center;labelBackgroundColor=#ffffff;verticalAlign=top;strokeWidth=2;strokeColor=#d79b00;shadow=0;dashed=0;shape=mxgraph.ios7.icons.data;fillColor=#ffe6cc;" parent="1" vertex="1">
          <mxGeometry x="618" y="256.9" width="54" height="50.1" as="geometry" />
        </mxCell>
        <mxCell id="XWF4hy6HSdqNymS0PtoF-37" value="" style="shape=flexArrow;endArrow=classic;html=1;rounded=0;entryX=0.03;entryY=0.365;entryDx=0;entryDy=0;entryPerimeter=0;fillColor=#dae8fc;strokeColor=#6c8ebf;" parent="1" edge="1">
          <mxGeometry width="50" height="50" relative="1" as="geometry">
            <mxPoint x="150" y="300" as="sourcePoint" />
            <mxPoint x="213.60000000000014" y="301.4" as="targetPoint" />
          </mxGeometry>
        </mxCell>
        <mxCell id="XWF4hy6HSdqNymS0PtoF-39" value="Raw Data" style="text;strokeColor=none;align=center;fillColor=none;html=1;verticalAlign=middle;whiteSpace=wrap;rounded=0;fontSize=9;" parent="1" vertex="1">
          <mxGeometry x="230" y="307.1" width="130" height="30" as="geometry" />
        </mxCell>
        <mxCell id="XWF4hy6HSdqNymS0PtoF-40" value="Cleaned, Standardized Data" style="text;strokeColor=none;align=center;fillColor=none;html=1;verticalAlign=middle;whiteSpace=wrap;rounded=0;fontSize=9;" parent="1" vertex="1">
          <mxGeometry x="416" y="307" width="100" height="30" as="geometry" />
        </mxCell>
        <mxCell id="XWF4hy6HSdqNymS0PtoF-41" value="Business-Ready Data" style="text;strokeColor=none;align=center;fillColor=none;html=1;verticalAlign=middle;whiteSpace=wrap;rounded=0;fontSize=9;" parent="1" vertex="1">
          <mxGeometry x="595" y="307" width="100" height="30" as="geometry" />
        </mxCell>
        <mxCell id="XWF4hy6HSdqNymS0PtoF-42" value="" style="shape=flexArrow;endArrow=classic;html=1;rounded=0;entryX=0.03;entryY=0.365;entryDx=0;entryDy=0;entryPerimeter=0;fillColor=#dae8fc;strokeColor=#6c8ebf;" parent="1" edge="1">
          <mxGeometry width="50" height="50" relative="1" as="geometry">
            <mxPoint x="354" y="304.3" as="sourcePoint" />
            <mxPoint x="417.60000000000014" y="305.7" as="targetPoint" />
          </mxGeometry>
        </mxCell>
        <mxCell id="XWF4hy6HSdqNymS0PtoF-43" value="" style="shape=flexArrow;endArrow=classic;html=1;rounded=0;entryX=0.03;entryY=0.365;entryDx=0;entryDy=0;entryPerimeter=0;fillColor=#dae8fc;strokeColor=#6c8ebf;" parent="1" edge="1">
          <mxGeometry width="50" height="50" relative="1" as="geometry">
            <mxPoint x="531" y="304.3" as="sourcePoint" />
            <mxPoint x="594.6000000000001" y="305.7" as="targetPoint" />
          </mxGeometry>
        </mxCell>
        <mxCell id="XWF4hy6HSdqNymS0PtoF-44" value="" style="shape=flexArrow;endArrow=classic;html=1;rounded=0;entryX=0.03;entryY=0.365;entryDx=0;entryDy=0;entryPerimeter=0;fillColor=#dae8fc;strokeColor=#6c8ebf;" parent="1" edge="1">
          <mxGeometry width="50" height="50" relative="1" as="geometry">
            <mxPoint x="730" y="300" as="sourcePoint" />
            <mxPoint x="793.6000000000001" y="301.4" as="targetPoint" />
          </mxGeometry>
        </mxCell>
        <mxCell id="XWF4hy6HSdqNymS0PtoF-45" value="" style="image;aspect=fixed;html=1;points=[];align=center;fontSize=12;image=img/lib/azure2/general/File.svg;" parent="1" vertex="1">
          <mxGeometry x="100" y="135" width="16.23" height="20" as="geometry" />
        </mxCell>
        <mxCell id="XWF4hy6HSdqNymS0PtoF-46" value="" style="image;html=1;image=img/lib/clip_art/general/Full_Folder_128x128.png" parent="1" vertex="1">
          <mxGeometry x="76.5" y="180" width="47" height="40" as="geometry" />
        </mxCell>
        <mxCell id="XWF4hy6HSdqNymS0PtoF-47" value="" style="image;aspect=fixed;html=1;points=[];align=center;fontSize=12;image=img/lib/azure2/general/File.svg;" parent="1" vertex="1">
          <mxGeometry x="106.5" y="205" width="16.23" height="20" as="geometry" />
        </mxCell>
        <mxCell id="XWF4hy6HSdqNymS0PtoF-48" value="" style="image;html=1;image=img/lib/clip_art/general/Full_Folder_128x128.png" parent="1" vertex="1">
          <mxGeometry x="76.5" y="260" width="47" height="40" as="geometry" />
        </mxCell>
        <mxCell id="XWF4hy6HSdqNymS0PtoF-49" value="" style="image;aspect=fixed;html=1;points=[];align=center;fontSize=12;image=img/lib/azure2/general/File.svg;" parent="1" vertex="1">
          <mxGeometry x="106.5" y="285" width="16.23" height="20" as="geometry" />
        </mxCell>
        <mxCell id="XWF4hy6HSdqNymS0PtoF-51" value="" style="endArrow=none;html=1;rounded=0;" parent="1" edge="1">
          <mxGeometry width="50" height="50" relative="1" as="geometry">
            <mxPoint x="50.00000000000001" y="349.43" as="sourcePoint" />
            <mxPoint x="146.88" y="349.43" as="targetPoint" />
          </mxGeometry>
        </mxCell>
        <mxCell id="XWF4hy6HSdqNymS0PtoF-52" value="&lt;b&gt;Object Type:&lt;/b&gt; CSV Files&lt;div&gt;&lt;br&gt;&lt;div&gt;&lt;b&gt;Interface:&lt;/b&gt; Files in Folders&lt;/div&gt;&lt;/div&gt;" style="text;strokeColor=none;align=left;fillColor=none;html=1;verticalAlign=middle;whiteSpace=wrap;rounded=0;fontSize=8;" parent="1" vertex="1">
          <mxGeometry x="50" y="360" width="100" height="30" as="geometry" />
        </mxCell>
        <mxCell id="XWF4hy6HSdqNymS0PtoF-53" value="" style="endArrow=none;html=1;rounded=0;" parent="1" edge="1">
          <mxGeometry width="50" height="50" relative="1" as="geometry">
            <mxPoint x="246.56" y="349.76" as="sourcePoint" />
            <mxPoint x="343.44" y="349.76" as="targetPoint" />
          </mxGeometry>
        </mxCell>
        <mxCell id="XWF4hy6HSdqNymS0PtoF-54" value="&lt;b&gt;Object Type:&lt;/b&gt; Table&lt;div&gt;&lt;br&gt;&lt;/div&gt;&lt;div&gt;&lt;b&gt;Load:&amp;nbsp;&lt;/b&gt;&lt;/div&gt;&lt;div&gt;&lt;ul&gt;&lt;li&gt;&lt;span style=&quot;background-color: transparent; color: light-dark(rgb(0, 0, 0), rgb(255, 255, 255));&quot;&gt;Batch Processing&lt;/span&gt;&lt;/li&gt;&lt;li&gt;&lt;span style=&quot;background-color: transparent; color: light-dark(rgb(0, 0, 0), rgb(255, 255, 255));&quot;&gt;Full Load&lt;/span&gt;&lt;/li&gt;&lt;li&gt;&lt;span style=&quot;background-color: transparent; color: light-dark(rgb(0, 0, 0), rgb(255, 255, 255));&quot;&gt;Truncate &amp;amp; Insert&lt;/span&gt;&lt;/li&gt;&lt;/ul&gt;&lt;div&gt;No &lt;b&gt;Transformations&lt;/b&gt;&lt;/div&gt;&lt;/div&gt;&lt;div&gt;&lt;b&gt;&lt;br&gt;&lt;/b&gt;&lt;/div&gt;&lt;div&gt;&lt;b&gt;Data Model: &lt;/b&gt;None&lt;/div&gt;" style="text;strokeColor=none;align=left;fillColor=none;html=1;verticalAlign=top;whiteSpace=wrap;rounded=0;fontSize=8;" parent="1" vertex="1">
          <mxGeometry x="227" y="360" width="133" height="160" as="geometry" />
        </mxCell>
        <mxCell id="XWF4hy6HSdqNymS0PtoF-55" value="" style="endArrow=none;html=1;rounded=0;" parent="1" edge="1">
          <mxGeometry width="50" height="50" relative="1" as="geometry">
            <mxPoint x="416" y="349.43" as="sourcePoint" />
            <mxPoint x="512.88" y="349.43" as="targetPoint" />
          </mxGeometry>
        </mxCell>
        <mxCell id="XWF4hy6HSdqNymS0PtoF-57" value="" style="endArrow=none;html=1;rounded=0;" parent="1" edge="1">
          <mxGeometry width="50" height="50" relative="1" as="geometry">
            <mxPoint x="595" y="349.43" as="sourcePoint" />
            <mxPoint x="691.88" y="349.43" as="targetPoint" />
          </mxGeometry>
        </mxCell>
        <mxCell id="XWF4hy6HSdqNymS0PtoF-60" value="&lt;b&gt;Object Type:&lt;/b&gt;&amp;nbsp;Table&lt;div&gt;&lt;br&gt;&lt;/div&gt;&lt;div&gt;&lt;b&gt;Load:&amp;nbsp;&lt;/b&gt;&lt;/div&gt;&lt;div&gt;&lt;ul&gt;&lt;li&gt;&lt;span style=&quot;background-color: transparent; color: light-dark(rgb(0, 0, 0), rgb(255, 255, 255));&quot;&gt;Batch Processing&lt;/span&gt;&lt;/li&gt;&lt;li&gt;&lt;span style=&quot;background-color: transparent; color: light-dark(rgb(0, 0, 0), rgb(255, 255, 255));&quot;&gt;Full Load&lt;/span&gt;&lt;/li&gt;&lt;li&gt;&lt;span style=&quot;background-color: transparent; color: light-dark(rgb(0, 0, 0), rgb(255, 255, 255));&quot;&gt;Truncate &amp;amp; Insert&lt;/span&gt;&lt;/li&gt;&lt;/ul&gt;&lt;div&gt;&lt;b&gt;Transformations:&lt;/b&gt;&lt;/div&gt;&lt;/div&gt;&lt;div&gt;&lt;ul&gt;&lt;li&gt;Data Clensing&lt;/li&gt;&lt;li&gt;Data Standardization&lt;/li&gt;&lt;li&gt;Data Normalization&lt;/li&gt;&lt;li&gt;Derived Columns&lt;/li&gt;&lt;li&gt;Data Enrichment&lt;/li&gt;&lt;/ul&gt;&lt;/div&gt;&lt;div&gt;&lt;b&gt;&lt;br&gt;&lt;/b&gt;&lt;/div&gt;&lt;div&gt;&lt;b&gt;Data Model: &lt;/b&gt;None&lt;/div&gt;" style="text;strokeColor=none;align=left;fillColor=none;html=1;verticalAlign=top;whiteSpace=wrap;rounded=0;fontSize=8;" parent="1" vertex="1">
          <mxGeometry x="403.5" y="360" width="133" height="160" as="geometry" />
        </mxCell>
        <mxCell id="ztRFr-fxjeCKOgokeApE-1" value="&lt;b&gt;Object Type:&lt;/b&gt;&amp;nbsp;Views&lt;div&gt;&lt;br&gt;&lt;/div&gt;&lt;div&gt;No&lt;b&gt; Load&lt;/b&gt;&lt;/div&gt;&lt;div&gt;&lt;div&gt;&lt;b&gt;&lt;br&gt;&lt;/b&gt;&lt;/div&gt;&lt;div&gt;&lt;b&gt;Transformations:&lt;/b&gt;&lt;/div&gt;&lt;/div&gt;&lt;div&gt;&lt;ul&gt;&lt;li&gt;Data Integrations&lt;/li&gt;&lt;li&gt;Aggregations&lt;/li&gt;&lt;li&gt;Business Logics&lt;/li&gt;&lt;/ul&gt;&lt;/div&gt;&lt;div&gt;&lt;b&gt;&lt;br&gt;&lt;/b&gt;&lt;/div&gt;&lt;div&gt;&lt;b&gt;Data Model:&lt;/b&gt;&lt;/div&gt;&lt;div&gt;&lt;ul&gt;&lt;li&gt;Star Schema&lt;/li&gt;&lt;li&gt;Flat Table&lt;/li&gt;&lt;li&gt;Aggregated Table&lt;/li&gt;&lt;/ul&gt;&lt;/div&gt;" style="text;strokeColor=none;align=left;fillColor=none;html=1;verticalAlign=top;whiteSpace=wrap;rounded=0;fontSize=8;" vertex="1" parent="1">
          <mxGeometry x="578.5" y="360" width="133" height="160" as="geometry" />
        </mxCell>
        <mxCell id="ztRFr-fxjeCKOgokeApE-2" value="" style="image;aspect=fixed;html=1;points=[];align=center;fontSize=12;image=img/lib/azure2/power_platform/PowerBI.svg;" vertex="1" parent="1">
          <mxGeometry x="823" y="120" width="30" height="40" as="geometry" />
        </mxCell>
        <mxCell id="ztRFr-fxjeCKOgokeApE-4" value="" style="outlineConnect=0;dashed=0;verticalLabelPosition=bottom;verticalAlign=top;align=center;html=1;shape=mxgraph.aws3.ms_sql_instance;fillColor=#2E73B8;gradientColor=none;" vertex="1" parent="1">
          <mxGeometry x="814" y="273.75" width="48" height="42.5" as="geometry" />
        </mxCell>
        <mxCell id="ztRFr-fxjeCKOgokeApE-5" value="" style="outlineConnect=0;dashed=0;verticalLabelPosition=bottom;verticalAlign=top;align=center;html=1;shape=mxgraph.aws3.machine_learning;fillColor=#2E73B8;gradientColor=none;" vertex="1" parent="1">
          <mxGeometry x="808" y="403.5" width="60" height="73" as="geometry" />
        </mxCell>
        <mxCell id="ztRFr-fxjeCKOgokeApE-7" value="&lt;b&gt;Machine Learning&lt;/b&gt;" style="text;strokeColor=none;align=center;fillColor=none;html=1;verticalAlign=middle;whiteSpace=wrap;rounded=0;fontSize=8;" vertex="1" parent="1">
          <mxGeometry x="788" y="155" width="100" height="30" as="geometry" />
        </mxCell>
        <mxCell id="ztRFr-fxjeCKOgokeApE-8" value="&lt;b&gt;Ad-Hoc SQL Queries&lt;/b&gt;" style="text;strokeColor=none;align=center;fillColor=none;html=1;verticalAlign=middle;whiteSpace=wrap;rounded=0;fontSize=8;" vertex="1" parent="1">
          <mxGeometry x="788" y="316.25" width="100" height="30" as="geometry" />
        </mxCell>
        <mxCell id="ztRFr-fxjeCKOgokeApE-9" value="&lt;b&gt;Machine Learning&lt;/b&gt;" style="text;strokeColor=none;align=center;fillColor=none;html=1;verticalAlign=middle;whiteSpace=wrap;rounded=0;fontSize=8;" vertex="1" parent="1">
          <mxGeometry x="788" y="476.5" width="100" height="30" as="geometry" />
        </mxCell>
        <mxCell id="ztRFr-fxjeCKOgokeApE-10" value="" style="image;aspect=fixed;html=1;points=[];align=center;fontSize=12;image=img/lib/azure2/databases/SQL_Server_Registries.svg;" vertex="1" parent="1">
          <mxGeometry x="205.06" y="75" width="21.94" height="20" as="geometry" />
        </mxCell>
      </root>
    </mxGraphModel>
  </diagram>
</mxfile>
